HIERARCHY
ROOT reference
{
  OFFSET 0 0 0
  CHANNELS 6 Xposition Yposition Zposition Zrotation Xrotation Yrotation
  JOINT Hips
  {
    OFFSET 26.1635 91.0658 86.9824
    CHANNELS 6 Xposition Yposition Zposition Zrotation Xrotation Yrotation
    JOINT Spine
    {
      OFFSET 0 8.25043 0
      CHANNELS 6 Xposition Yposition Zposition Zrotation Xrotation Yrotation
      JOINT Spine1
      {
        OFFSET 0 26.9735 0
        CHANNELS 6 Xposition Yposition Zposition Zrotation Xrotation Yrotation
        JOINT Neck
        {
          OFFSET 0 26.8627 2.44206
          CHANNELS 6 Xposition Yposition Zposition Zrotation Xrotation Yrotation
          JOINT Head
          {
            OFFSET 0 14.0861 -2.0123
            CHANNELS 6 Xposition Yposition Zposition Zrotation Xrotation Yrotation
            End Site
            {
              OFFSET 0 25.1537 0
            }
          }
        }
        JOINT LeftShoulder
        {
          OFFSET 4.03461 23.8974 -0.31355
          CHANNELS 6 Xposition Yposition Zposition Zrotation Xrotation Yrotation
          JOINT LeftArm
          {
            OFFSET 14.6104 0 0
            CHANNELS 6 Xposition Yposition Zposition Zrotation Xrotation Yrotation
            JOINT LeftForeArm
            {
              OFFSET 28.8903 0 0
              CHANNELS 6 Xposition Yposition Zposition Zrotation Xrotation Yrotation
              JOINT LeftHand
              {
                OFFSET 28.8168 0 0
                CHANNELS 6 Xposition Yposition Zposition Zrotation Xrotation Yrotation
                End Site
                {
                  OFFSET 15.0922 0 0
                }
              }
            }
          }
        }
        JOINT RightShoulder
        {
          OFFSET -4.01401 23.8974 -0.31355
          CHANNELS 6 Xposition Yposition Zposition Zrotation Xrotation Yrotation
          JOINT RightArm
          {
            OFFSET -14.6104 0 0
            CHANNELS 6 Xposition Yposition Zposition Zrotation Xrotation Yrotation
            JOINT RightForeArm
            {
              OFFSET -28.8903 0 0
              CHANNELS 6 Xposition Yposition Zposition Zrotation Xrotation Yrotation
              JOINT RightHand
              {
                OFFSET -28.8168 0 0
                CHANNELS 6 Xposition Yposition Zposition Zrotation Xrotation Yrotation
                End Site
                {
                  OFFSET -15.0922 0 0
                }
              }
            }
          }
        }
      }
    }
    JOINT LeftUpLeg
    {
      OFFSET 10.0615 0 0
      CHANNELS 6 Xposition Yposition Zposition Zrotation Xrotation Yrotation
      JOINT LeftLeg
      {
        OFFSET 0 -36.0896 0
        CHANNELS 6 Xposition Yposition Zposition Zrotation Xrotation Yrotation
        JOINT LeftFoot
        {
          OFFSET 0 -47.1136 0
          CHANNELS 6 Xposition Yposition Zposition Zrotation Xrotation Yrotation
          JOINT LeftToeBase
          {
            OFFSET 0 -6.53997 15.0922
            CHANNELS 6 Xposition Yposition Zposition Zrotation Xrotation Yrotation
            End Site
            {
              OFFSET 0 0 4.0246
            }
          }
        }
      }
    }
    JOINT RightUpLeg
    {
      OFFSET -10.0615 0 0
      CHANNELS 6 Xposition Yposition Zposition Zrotation Xrotation Yrotation
      JOINT RightLeg
      {
        OFFSET 0 -36.0896 0
        CHANNELS 6 Xposition Yposition Zposition Zrotation Xrotation Yrotation
        JOINT RightFoot
        {
          OFFSET 0 -47.1136 0
          CHANNELS 6 Xposition Yposition Zposition Zrotation Xrotation Yrotation
          JOINT RightToeBase
          {
            OFFSET 0 -6.53997 15.0922
            CHANNELS 6 Xposition Yposition Zposition Zrotation Xrotation Yrotation
            End Site
            {
              OFFSET 0 0 4.0246
            }
          }
        }
      }
    }
  }
}
MOTION
Frames:	10
Frame Time:	0.004
0 0 0 0 0 -0 8.45931 81.9698 -213.416 2.2397 -4.01536 7.63341 0 8.25043 0 -1.70722 2.27687 0.520214 0 26.9735 0 -2.10893 -6.45404 0.367371 7.10543e-015 26.8627 2.44206 9.36152 24.2084 8.68279 -1.42109e-014 14.0861 -2.0123 -7.03342 3.39609 8.97173 4.03461 23.8974 -0.31355 15.0049 1.2913 -2.62733 14.6104 2.84217e-014 0 -25.6597 -3.25718 -1.11481 28.8903 0 0 1.1317 3.46589 0.252887 28.8168 0 0 10.3129 4.06105 6.62989 -4.01401 23.8974 -0.31355 -13.8754 1.17251 0.983118 -14.6104 0 0 16.6188 7.11705 4.04898 -28.8903 2.84217e-014 0 -11.8497 -6.7656 1.1505 -28.8168 0 0 1.14784 -6.71076 -6.39713 10.0615 1.42109e-014 -2.84217e-014 2.89448 2.11804 -6.97312 3.55271e-015 -36.0896 2.84217e-014 -5.92938 12.9798 -17.9752 -7.10543e-015 -47.1136 0 16.2264 -11.5807 39.1026 0 -6.53997 15.0922 -1.19271e-015 -7.95139e-016 3.18055e-015 -10.0615 1.42109e-014 2.84217e-014 -3.14332 6.95829 0.0362313 3.55271e-015 -36.0896 2.84217e-014 -1.38047 -4.41292 52.2228 0 -47.1136 0 1.10348e-031 -9.93923e-016 6.36111e-015 0 -6.53997 15.0922 6.62086e-032 -5.96354e-016 6.36111e-015 
0 0 0 0 0 -0 8.45025 81.9698 -213.416 2.24027 -4.01529 7.6415 0 8.25043 2.84217e-014 -1.10738 -0.442866 -0.195567 7.10543e-015 26.9735 2.84217e-014 -2.55535 0.049618 -0.190338 0 26.8627 2.44206 6.57496 18.5174 10.2373 0 14.0861 -2.0123 -5.00943 5.10849 10.3135 4.03461 23.8974 -0.31355 16.7455 -1.59048 0.804932 14.6104 0 0 -26.7203 -1.76487 -2.19432 28.8903 -2.84217e-014 -2.84217e-014 20.8416 82.2386 -14.2414 28.8168 2.84217e-014 2.84217e-014 5.61778 78.2203 -155.761 -4.01401 23.8974 -0.31355 -17.3514 -2.29713 1.14523 -14.6104 0 0 19.8062 7.04296 4.35317 -28.8903 2.84217e-014 -2.84217e-014 -11.8534 -7.00944 1.0803 -28.8168 2.84217e-014 2.84217e-014 1.27715 -6.96926 -6.42087 10.0615 0 2.84217e-014 2.89273 2.10992 -6.95275 0 -36.0896 -2.84217e-014 -5.92938 12.9798 -17.9752 7.10543e-015 -47.1136 0 16.2264 -11.5807 39.1026 1.42109e-014 -6.53997 15.0922 -2.98177e-015 -7.95139e-016 -0 -10.0615 0 0 -3.14086 6.95829 0.0159688 -3.55271e-015 -36.0896 2.84217e-014 -1.38047 -4.41292 52.2228 -2.84217e-014 -47.1136 0 0 0 -3.18055e-015 0 -6.53997 15.0922 3.97569e-016 1.98785e-016 3.18055e-015 
0 0 0 0 0 -0 8.44502 81.97 -213.416 2.23958 -4.0081 7.64537 7.10543e-015 8.25043 0 -1.70921 2.28777 0.522022 0 26.9735 0 -2.09191 -6.4446 0.370115 0 26.8627 2.44206 9.31752 24.2388 8.66918 0 14.0861 -2.0123 -7.01368 3.43632 8.96162 4.03461 23.8974 -0.31355 15.0186 1.29513 -2.64744 14.6104 0 0 -25.6627 -3.2686 -1.11237 28.8903 0 0 22.5772 82.7434 -15.4096 28.8168 2.84217e-014 -2.84217e-014 5.57667 79.145 -155.599 -4.01401 23.8974 -0.31355 -13.8782 1.14991 0.964758 -14.6104 0 -2.84217e-014 16.6119 7.10058 4.0428 -28.8903 2.84217e-014 0 -11.8444 -6.75376 1.11749 -28.8168 0 -2.84217e-014 1.16645 -6.70299 -6.35941 10.0615 1.42109e-014 0 2.88988 2.09093 -6.93516 0 -36.0896 2.84217e-014 -5.91195 13.0272 -18.0247 0 -47.1136 0 16.517 -11.2328 39.0753 0 -6.53997 15.0922 -2.5842e-015 -1.59028e-015 -0 -10.0615 -1.42109e-014 -2.84217e-014 -3.14039 6.95829 0.012022 0 -36.0896 0 -1.37985 -4.42563 52.2067 0 -47.1136 0 3.97569e-016 7.95139e-016 -3.18055e-015 2.84217e-014 -6.53997 15.0922 3.97569e-016 3.97569e-016 -0 
0 0 0 0 0 -0 8.44045 81.9682 -213.416 2.23938 -4.00122 7.6555 7.10543e-015 8.25043 0 -1.70075 2.28008 0.51953 0 26.9735 2.84217e-014 -2.08904 -6.43475 0.368324 0 26.8627 2.44206 9.30976 24.2765 8.66082 0 14.0861 -2.0123 -7.02973 3.39891 8.95167 4.03461 23.8974 -0.31355 15.025 1.27512 -2.65876 14.6104 0 2.84217e-014 -25.665 -3.27183 -1.10082 28.8903 5.68434e-014 0 22.7371 82.8024 -15.5755 28.8168 -2.84217e-014 0 5.68716 79.1108 -155.741 -4.01401 23.8974 -0.31355 -13.8864 1.12558 0.957204 -14.6104 2.84217e-014 0 16.6179 7.11898 4.03417 -28.8903 0 0 -11.8489 -6.75131 1.10772 -28.8168 -2.84217e-014 0 1.17149 -6.70162 -6.3471 10.0615 1.42109e-014 2.84217e-014 2.89968 2.07541 -6.93807 3.55271e-015 -36.0896 -2.84217e-014 -5.91585 13.0376 -18.0474 0 -47.1136 5.68434e-014 16.5089 -11.2453 39.0908 0 -6.53997 15.0922 -3.57812e-015 7.95139e-016 -0 -10.0615 0 0 -3.13621 6.95432 0.004896 0 -36.0896 0 -1.38682 -4.42105 52.3006 0 -47.1136 1.42109e-014 3.97569e-016 -3.97569e-016 -3.18055e-015 -2.84217e-014 -6.53997 15.0922 3.97569e-016 0 -0 
0 0 0 0 0 -0 8.43546 81.9661 -213.416 2.23806 -3.98714 7.66356 0 8.25043 0 -1.69734 2.26819 0.518251 0 26.9735 -2.84217e-014 -2.09047 -6.42296 0.367788 0 26.8627 2.44206 9.30472 24.2714 8.65849 0 14.0861 -2.0123 -7.03122 3.42295 8.9497 4.03461 23.8974 -0.31355 15.0235 1.27671 -2.65661 14.6104 -2.84217e-014 0 -25.6498 -3.24925 -1.11261 28.8903 0 0 22.8606 82.8698 -15.7059 28.8168 0 0 5.83669 79.0433 -155.906 -4.01401 23.8974 -0.31355 -13.8828 1.10914 0.946433 -14.6104 0 0 16.6145 7.10368 4.02772 -28.8903 0 0 -11.8163 -6.66676 1.10929 -28.8168 2.84217e-014 0 1.15944 -6.61585 -6.27791 10.0615 -1.42109e-014 2.84217e-014 2.90142 2.05009 -6.9336 0 -36.0896 -2.84217e-014 -5.91961 13.0547 -18.0564 0 -47.1136 -2.84217e-014 16.5058 -11.2557 39.1052 1.42109e-014 -6.53997 15.0922 -1.39149e-015 -2.38542e-015 -0 -10.0615 0 0 -3.13193 6.94436 -0.01296 0 -36.0896 0 -1.37971 -4.42901 52.2435 2.84217e-014 -47.1136 0 7.95139e-016 9.93923e-016 -9.54166e-015 -2.84217e-014 -6.53997 15.0922 -3.97569e-016 0 -3.18055e-015 
0 0 0 0 0 -0 8.43192 81.9639 -213.416 2.23808 -3.98074 7.67598 0 8.25043 0 -1.69126 2.26136 0.51708 0 26.9735 -2.84217e-014 -2.0891 -6.41012 0.367418 0 26.8627 2.44206 9.2927 24.2766 8.6537 0 14.0861 -2.0123 -7.03762 3.43141 8.94436 4.03461 23.8974 -0.31355 15.0281 1.27302 -2.66539 14.6104 0 2.84217e-014 -25.6589 -3.23065 -1.10188 28.8903 0 0 22.9793 82.8612 -15.8128 28.8168 0 2.84217e-014 5.84514 79.027 -155.916 -4.01401 23.8974 -0.31355 -13.8928 1.12172 0.937704 -14.6104 2.84217e-014 0 16.6141 7.08287 4.02997 -28.8903 2.84217e-014 0 -11.8107 -6.67123 1.10776 -28.8168 0 2.84217e-014 1.11358 -6.61853 -6.28536 10.0615 1.42109e-014 -2.84217e-014 2.89942 2.03524 -6.91155 -3.55271e-015 -36.0896 2.84217e-014 -5.90204 13.0672 -18.038 0 -47.1136 0 16.4954 -11.2715 39.056 0 -6.53997 15.0922 0 2.38542e-015 -0 -10.0615 0 0 -3.13192 6.95017 -0.01133 0 -36.0896 0 -1.36575 -4.45084 52.1635 -2.84217e-014 -47.1136 -1.42109e-014 3.97569e-016 9.93923e-016 -0 0 -6.53997 15.0922 3.97569e-016 -3.97569e-016 -0 
0 0 0 0 0 -0 8.4285 81.9616 -213.416 2.24114 -4.00799 7.66742 0 8.25043 0 -1.69328 2.28906 0.515982 0 26.9735 2.84217e-014 -2.08746 -6.40064 0.367113 7.10543e-015 26.8627 2.44206 9.2963 24.2889 8.64978 -1.42109e-014 14.0861 -2.0123 -7.05601 3.4374 8.93966 4.03461 23.8974 -0.31355 15.0405 1.26364 -2.66597 14.6104 0 0 -25.6655 -3.21203 -1.10373 28.8903 0 0 23.1758 82.9275 -16.01 28.8168 0 0 5.96211 78.9988 -156.048 -4.01401 23.8974 -0.31355 -13.8924 1.10505 0.935741 -14.6104 0 0 16.6093 7.04494 4.01906 -28.8903 0 0 -11.7977 -6.6443 1.10596 -28.8168 0 0 1.11294 -6.59134 -6.28019 10.0615 0 2.84217e-014 2.89852 2.06532 -6.92089 -3.55271e-015 -36.0896 2.84217e-014 -5.90779 13.0745 -18.0512 7.10543e-015 -47.1136 0 16.5156 -11.2675 39.0915 0 -6.53997 15.0922 5.96354e-016 7.95139e-016 3.18055e-015 -10.0615 -1.42109e-014 0 -3.13153 6.98109 -0.014635 0 -36.0896 2.84217e-014 -1.37607 -4.44972 52.2463 0 -47.1136 -1.42109e-014 -1.19271e-015 0 -3.18055e-015 2.84217e-014 -6.53997 15.0922 -3.97569e-016 0 3.18055e-015 
0 0 0 0 0 -0 8.42244 81.9592 -213.416 2.24133 -3.99771 7.68961 -7.10543e-015 8.25043 0 -1.68727 2.28134 0.514889 0 26.9735 0 -2.0857 -6.38907 0.366767 0 26.8627 2.44206 9.27109 24.2834 8.64968 0 14.0861 -2.0123 -7.02584 3.45702 8.94163 4.03461 23.8974 -0.31355 15.0507 1.26902 -2.67239 14.6104 0 0 -25.6668 -3.18694 -1.09917 28.8903 -2.84217e-014 0 23.4463 82.9402 -16.2833 28.8168 -2.84217e-014 0 5.99249 79.0297 -155.962 -4.01401 23.8974 -0.31355 -13.8884 1.1107 0.92741 -14.6104 -2.84217e-014 -2.84217e-014 16.6087 7.0377 4.013 -28.8903 2.84217e-014 2.84217e-014 -11.8043 -6.65447 1.10516 -28.8168 0 0 1.10082 -6.60092 -6.27431 10.0615 0 0 2.91113 2.03593 -6.94046 0 -36.0896 0 -5.91731 13.0956 -18.0658 7.10543e-015 -47.1136 2.84217e-014 16.5383 -11.2592 39.0988 0 -6.53997 15.0922 1.19271e-015 -1.59028e-015 -6.36111e-015 -10.0615 -1.42109e-014 0 -3.1294 6.98061 -0.033705 -3.55271e-015 -36.0896 0 -1.37691 -4.46209 52.2147 0 -47.1136 1.42109e-014 2.20695e-032 1.98785e-016 -6.36111e-015 -2.84217e-014 -6.53997 15.0922 -0 -3.97569e-016 -0 
0 0 0 0 0 -0 8.41815 81.9554 -213.416 2.24037 -3.99732 7.67683 0 8.25043 2.84217e-014 -1.68054 2.2797 0.513772 -7.10543e-015 26.9735 0 -2.08389 -6.37921 0.366277 -7.10543e-015 26.8627 2.44206 9.28077 24.3178 8.64751 0 14.0861 -2.0123 -7.0727 3.42305 8.93448 4.03461 23.8974 -0.31355 15.0492 1.26806 -2.6771 14.6104 0 0 -25.6679 -3.15928 -1.09655 28.8903 -2.84217e-014 0 23.4619 82.9263 -16.2892 28.8168 0 0 5.96456 79.0444 -155.924 -4.01401 23.8974 -0.31355 -13.8977 1.10014 0.928274 -14.6104 2.84217e-014 2.84217e-014 16.6227 7.05721 4.00002 -28.8903 0 0 -11.8205 -6.6602 1.10452 -28.8168 -2.84217e-014 0 1.08362 -6.60619 -6.27188 10.0615 0 0 2.91217 2.05038 -6.91714 0 -36.0896 -2.84217e-014 -5.91557 13.0894 -18.0183 0 -47.1136 0 16.2655 -11.6318 39.093 0 -6.53997 15.0922 9.93923e-016 -2.38542e-015 -6.36111e-015 -10.0615 1.42109e-014 0 -3.1319 6.98849 -0.015472 0 -36.0896 0 -1.37441 -4.46624 52.1997 0 -47.1136 0 -7.95139e-016 1.98785e-016 -3.18055e-015 0 -6.53997 15.0922 2.64834e-031 1.19271e-015 -1.27222e-014 
0 0 0 0 0 -0 8.41658 81.9529 -213.415 2.24087 -3.99968 7.6793 -7.10543e-015 8.25043 2.84217e-014 -1.67776 2.28155 0.512585 0 26.9735 0 -2.08223 -6.35621 0.36553 0 26.8627 2.44206 9.28933 24.3145 8.64286 -1.42109e-014 14.0861 -2.0123 -7.10052 3.43071 8.9289 4.03461 23.8974 -0.31355 15.059 1.26449 -2.66749 14.6104 5.68434e-014 -2.84217e-014 -25.6702 -3.17268 -1.11007 28.8903 2.84217e-014 -2.84217e-014 23.2891 82.8707 -16.1029 28.8168 0 -5.68434e-014 5.81036 79.1072 -155.863 -4.01401 23.8974 -0.31355 -13.9034 1.08881 0.923217 -14.6104 2.84217e-014 0 16.6261 6.99871 3.99431 -28.8903 0 2.84217e-014 -11.8069 -6.63362 1.10389 -28.8168 2.84217e-014 0 1.06352 -6.57767 -6.27083 10.0615 -1.42109e-014 0 2.91051 2.02605 -6.93758 0 -36.0896 0 -5.91307 13.1242 -18.0352 0 -47.1136 0 16.2505 -11.6522 39.1165 1.42109e-014 -6.53997 15.0922 4.17448e-015 -7.95139e-016 3.18055e-015 -10.0615 0 -2.84217e-014 -3.13149 6.98597 -0.021811 0 -36.0896 0 -1.36523 -4.47027 52.2088 2.84217e-014 -47.1136 0 -0 -3.97569e-016 -0 0 -6.53997 15.0922 -2.20695e-032 -3.97569e-016 -3.18055e-015 
